<?xml version="1.0" standalone="no"?>
<!DOCTYPE svg PUBLIC "-//W3C//DTD SVG 20010904//EN"
 "http://www.w3.org/TR/2001/REC-SVG-20010904/DTD/svg10.dtd">
<svg version="1.0" xmlns="http://www.w3.org/2000/svg"
 width="400.000000pt" height="400.000000pt" viewBox="0 0 400.000000 400.000000"
 preserveAspectRatio="xMidYMid meet">
<metadata>
Created by potrace 1.11, written by Peter Selinger 2001-2013
</metadata>
<g transform="translate(0.000000,400.000000) scale(0.100000,-0.100000)"
fill="#000000" stroke="none">
<path d="M1804 3869 c-45 -3 -86 -9 -91 -12 -5 -3 -41 -11 -79 -17 -38 -6 -91
-18 -117 -26 -26 -9 -53 -17 -60 -18 -27 -5 -123 -39 -131 -47 -6 -5 -15 -9
-22 -9 -6 0 -33 -10 -60 -22 -27 -11 -51 -20 -53 -19 -2 2 -7 -1 -10 -6 -3 -4
-31 -21 -61 -36 -197 -100 -448 -308 -587 -487 -178 -229 -341 -573 -369 -780
-3 -19 -9 -46 -13 -60 -4 -14 -8 -44 -10 -68 -1 -24 -6 -64 -11 -90 -10 -58
-6 -313 8 -412 13 -94 29 -181 36 -200 3 -8 7 -26 10 -40 6 -37 59 -186 96
-270 90 -206 220 -397 377 -556 139 -142 203 -192 408 -322 70 -44 318 -152
385 -167 8 -2 49 -12 90 -23 225 -59 565 -76 765 -38 17 4 46 9 65 12 77 12
146 29 245 60 87 27 89 28 188 73 37 17 70 31 72 31 11 0 198 119 260 165 76
57 183 160 237 227 18 23 40 49 49 58 35 37 131 191 176 281 33 67 77 163 79
174 1 6 13 46 28 90 31 95 61 233 80 370 14 100 16 454 2 538 -3 20 -8 53 -10
73 -3 20 -7 39 -10 42 -3 3 -401 5 -883 5 l-878 0 -3 -359 -2 -360 500 1 500
0 0 -27 c0 -58 -87 -269 -135 -325 -73 -88 -140 -157 -185 -190 -114 -84 -279
-157 -413 -184 -28 -6 -63 -13 -77 -15 -14 -3 -83 -7 -154 -8 -118 -2 -155 0
-255 19 -131 24 -330 115 -446 205 -23 18 -161 155 -191 190 -71 82 -173 274
-195 368 -7 26 -15 52 -19 57 -3 6 -8 28 -9 49 -2 22 -7 51 -12 65 -13 33 -14
309 -1 342 6 14 11 43 13 65 1 21 6 44 9 49 4 6 12 31 19 57 17 72 75 192 138
287 67 100 252 291 282 291 5 0 11 4 13 9 10 27 208 122 324 156 114 33 190
42 333 39 242 -4 439 -78 633 -237 l47 -38 266 266 c237 236 265 267 255 285
-6 11 -14 20 -18 20 -4 0 -27 19 -52 41 -49 44 -213 159 -227 159 -4 0 -19 10
-33 23 -14 13 -34 26 -45 29 -11 4 -60 24 -110 46 -177 77 -258 101 -470 137
-107 18 -347 25 -481 14z"/>
</g>
</svg>
